# xmcd
#
# Track frame offsets:
#	150
#	13397
#	26789
#	44302
#	64146
#	76063
#	89331
#	105067
#	116600
#	125030
#	139561
#	154283
#	167605
#	189624
#	203545
#
# Disc length: 2850 seconds
#
# Revision: 8
# Processed by: cddbd v1.5.2PL0 Copyright (c) Steve Scherf et al.
# Submitted via: EZCDAudioConverter 2.1.7.1
#
DISCID=c10b200f
DTITLE=V/A - Psych Out!
DYEAR=2006
DGENRE=MOJO
TTITLE0=John's Children - Smashed Blocked
TTITLE1=The Smoke - High In A Room
TTITLE2=Tomorrow - Revolution [Top Gear Radio Session]
TTITLE3=The Attack - Mr. Pinnodmy's Dilemma
TTITLE4=The Troggs - When Will The Rain Come
TTITLE5=The Move - (Here We Go Round) The Lemon Tree
TTITLE6=Gordon Jackson - A Day At The Cottage
TTITLE7=Small Faces - Long Agos And Worlds Apart
TTITLE8=The In Crowd - Blow Up
TTITLE9=Donovan - Three Kingfishers
TTITLE10=Kaleidoscope - (Further Reflections) In The Room Of Percussion
TTITLE11=The Zombies - Hung Up On A Dream
TTITLE12=Procol Harum - Cerdes (Outside The Gates Of)
TTITLE13=Barclay James Harvest - Pools Of Blue
TTITLE14=Focus Three - 10,000 Years Behind My Mind
EXTD=
EXTT0=
EXTT1=
EXTT2=
EXTT3=
EXTT4=
EXTT5=
EXTT6=
EXTT7=
EXTT8=
EXTT9=
EXTT10=
EXTT11=
EXTT12=
EXTT13=
EXTT14=
PLAYORDER=
